# xmcd CD database file
#
# Track frame offsets:
#	150
#	26287
#	60085
#	88835
#	116162
#	145035
#	176020
#	208875
#	254410
#	279625
#
# Disc length: 4614 seconds
#
# Revision: 0
# Processed by: cddbd v1.4PL0 Copyright (c) Steve Scherf et al.
# Submitted via: CDex 1.50Beta5
#
DISCID=8d12040a
DTITLE=Jon Gordon - The Jon Gordon Quartet
DYEAR=1992
DGENRE=Jazz
TTITLE0=One For Charles
TTITLE1=The Trust of a Child
TTITLE2=Evidence
TTITLE3=Time Trap
TTITLE4=What's New
TTITLE5=Land of Ephysus
TTITLE6=My Shining Hour
TTITLE7=Earth Song
TTITLE8=Pass It On, Jon
TTITLE9=Jazzspeak
EXTD=YEAR: 1992
EXTT0=
EXTT1=
EXTT2=
EXTT3=
EXTT4=
EXTT5=
EXTT6=
EXTT7=
EXTT8=
EXTT9=
PLAYORDER=
